<?xml version="1.0" encoding="utf-8"?>
<!-- Generator: Adobe Illustrator 21.0.0, SVG Export Plug-In . SVG Version: 6.00 Build 0)  -->
<svg version="1.1" id="Capa_1" xmlns="http://www.w3.org/2000/svg" xmlns:xlink="http://www.w3.org/1999/xlink" x="0px" y="0px"
	 viewBox="0 0 189.6 114.9" style="enable-background:new 0 0 189.6 114.9;" xml:space="preserve">
<style type="text/css">
	.st0{fill:#2970CA;}
	.st1{fill:#E7C209;}
	.st2{fill:#892BB0;}
	.st3{fill:#BF0024;}
	.st4{fill:#404041;}
</style>
<g>
	<path class="st0" d="M83.6,23.2c3.8-3.8,3-10.4,1.6-15.1c-0.5-1.6-1.1-3-0.6-4.7c0.5-1.9,3.8-5.3,5-2c2.8,7.5,5.2,18.9-0.2,25.8
		c-6.1,7.7-19.2,5-27.2,2.2c-1.8-0.6-2.4-2.1-1-3.5c1.7-1.7,3.7-2.2,5.9-1.4c4.3,1.5,9.9,2.4,14.2,0.3C82.2,24.3,83,23.8,83.6,23.2
		C89,17.8,78.2,28.6,83.6,23.2"/>
	<path class="st0" d="M77.4,10.8c3.4,0,6.2,2.8,6.2,6.2s-2.8,6.2-6.2,6.2c-3.4,0-6.2-2.8-6.2-6.2S74,10.8,77.4,10.8"/>
	<path class="st1" d="M104.2,23.2c-3.8-3.8-3-10.4-1.6-15.1c0.5-1.6,1.1-3,0.6-4.7c-0.5-1.9-3.8-5.3-5-2c-2.8,7.5-5.2,18.9,0.2,25.8
		c6.1,7.7,19.2,5,27.2,2.2c1.8-0.6,2.4-2.1,1-3.5c-1.7-1.7-3.6-2.2-5.9-1.4c-4.4,1.5-9.9,2.5-14.2,0.3
		C105.6,24.3,104.9,23.8,104.2,23.2C98.8,17.8,109.7,28.6,104.2,23.2"/>
	<path class="st1" d="M116.6,17c0,3.4-2.8,6.2-6.2,6.2c-3.4,0-6.2-2.8-6.2-6.2s2.8-6.2,6.2-6.2C113.8,10.8,116.6,13.6,116.6,17"/>
	<path class="st2" d="M83.6,43.7c3.8,3.8,3,10.4,1.6,15.1c-0.5,1.6-1.1,3-0.6,4.7c0.5,1.9,3.8,5.3,5,2c2.8-7.5,5.2-18.9-0.2-25.8
		c-6.1-7.7-19.2-5-27.2-2.2c-1.8,0.6-2.4,2.1-1,3.5c1.7,1.7,3.6,2.2,5.9,1.4c4.3-1.5,9.9-2.4,14.2-0.3C82.2,42.6,83,43.1,83.6,43.7
		C89,49.1,78.2,38.3,83.6,43.7"/>
	<path class="st2" d="M71.2,49.9c0-3.4,2.8-6.2,6.2-6.2c3.4,0,6.2,2.8,6.2,6.2c0,3.4-2.8,6.2-6.2,6.2C74,56.1,71.2,53.3,71.2,49.9"
		/>
	<path class="st3" d="M104.2,43.7c-3.8,3.8-3,10.4-1.6,15.1c0.5,1.6,1.1,3,0.6,4.7c-0.5,1.9-3.8,5.3-5,2C95.4,58,93,46.6,98.4,39.7
		c6.1-7.7,19.2-5,27.2-2.2c1.8,0.6,2.4,2.1,1,3.5c-1.7,1.7-3.6,2.2-5.9,1.4c-4.4-1.5-9.9-2.5-14.2-0.3
		C105.6,42.6,104.9,43.1,104.2,43.7C98.8,49.1,109.7,38.3,104.2,43.7"/>
	<path class="st3" d="M110.4,56.1c-3.4,0-6.2-2.8-6.2-6.2c0-3.4,2.8-6.2,6.2-6.2c3.4,0,6.2,2.8,6.2,6.2
		C116.6,53.3,113.8,56.1,110.4,56.1"/>
	<path class="st1" d="M127.5,34c0-0.2,0-0.5,0.1-0.7c0.1-0.2,0.2-0.4,0.3-0.6c0.1-0.2,0.3-0.3,0.5-0.4c0.2-0.1,0.4-0.1,0.6-0.1
		c0.2,0,0.4,0,0.6,0.1c0.2,0.1,0.4,0.2,0.5,0.4c0.1,0.2,0.2,0.3,0.3,0.6c0.1,0.2,0.1,0.4,0.1,0.7c0,0.2,0,0.5-0.1,0.7
		c-0.1,0.2-0.2,0.4-0.3,0.6c-0.1,0.2-0.3,0.3-0.5,0.4c-0.2,0.1-0.4,0.1-0.6,0.1c-0.2,0-0.4,0-0.6-0.1c-0.2-0.1-0.4-0.2-0.5-0.4
		c-0.1-0.2-0.2-0.3-0.3-0.6C127.5,34.4,127.5,34.2,127.5,34 M127.9,34c0,0.2,0,0.4,0.1,0.5c0.1,0.2,0.1,0.3,0.2,0.4
		c0.1,0.1,0.2,0.2,0.4,0.3c0.1,0.1,0.3,0.1,0.4,0.1c0.2,0,0.3,0,0.4-0.1c0.1-0.1,0.3-0.2,0.4-0.3c0.1-0.1,0.2-0.3,0.2-0.4
		c0.1-0.2,0.1-0.3,0.1-0.5c0-0.2,0-0.4-0.1-0.5c-0.1-0.2-0.1-0.3-0.2-0.4c-0.1-0.1-0.2-0.2-0.4-0.3c-0.1-0.1-0.3-0.1-0.4-0.1
		c-0.2,0-0.3,0-0.4,0.1c-0.1,0.1-0.3,0.2-0.4,0.3c-0.1,0.1-0.2,0.3-0.2,0.4C127.9,33.6,127.9,33.8,127.9,34 M128.4,33h0.6
		c0,0,0.1,0,0.2,0c0.1,0,0.2,0,0.2,0.1c0.1,0,0.1,0.1,0.2,0.2c0,0.1,0.1,0.2,0.1,0.3c0,0.1,0,0.2,0,0.2c0,0.1,0,0.1-0.1,0.2
		c0,0-0.1,0.1-0.1,0.1c0,0-0.1,0-0.1,0l0.4,0.7h-0.4l-0.4-0.7h-0.1v0.7h-0.4V33z M128.9,33.8h0.2c0,0,0.1,0,0.1,0c0,0,0.1,0,0.1,0
		c0,0,0,0,0.1-0.1c0,0,0-0.1,0-0.1c0-0.1,0-0.1,0-0.1c0,0,0,0-0.1-0.1c0,0-0.1,0-0.1,0c0,0-0.1,0-0.1,0h-0.2V33.8z"/>
	<path class="st4" d="M17.2,86.2c-0.5-0.7-1.2-1.3-1.9-1.6c-0.8-0.4-1.7-0.6-2.7-0.6c-1,0-1.9,0.2-2.8,0.6c-0.9,0.4-1.6,1-2.2,1.8
		c-0.6,0.8-1.1,1.7-1.5,2.8c-0.4,1.1-0.5,2.2-0.5,3.5c0,1.3,0.2,2.4,0.5,3.5c0.4,1.1,0.8,2,1.5,2.7c0.6,0.8,1.3,1.4,2.2,1.8
		c0.8,0.4,1.7,0.7,2.7,0.7c1.1,0,2.1-0.3,2.9-0.8c0.8-0.5,1.5-1.2,2.1-2.1l4.5,3.7c-1,1.6-2.3,2.8-3.9,3.6c-1.6,0.8-3.2,1.1-4.9,1.1
		c-1.9,0-3.6-0.3-5.3-1c-1.6-0.7-3-1.6-4.1-2.8c-1.2-1.2-2.1-2.7-2.7-4.5c-0.6-1.8-1-3.7-1-5.9c0-2.2,0.3-4.1,1-5.9
		c0.7-1.8,1.6-3.3,2.7-4.5c1.2-1.2,2.6-2.2,4.1-2.8c1.6-0.7,3.4-1,5.3-1c0.7,0,1.4,0.1,2.2,0.2c0.7,0.1,1.5,0.4,2.2,0.7
		c0.7,0.3,1.4,0.7,2.1,1.2c0.7,0.5,1.3,1.1,1.8,1.9L17.2,86.2z"/>
	<path class="st4" d="M22.5,97c0-1.5,0.2-2.8,0.7-4c0.5-1.2,1.1-2.2,2-3.1c0.8-0.9,1.8-1.5,3-2c1.1-0.5,2.3-0.7,3.6-0.7
		c1.3,0,2.5,0.2,3.6,0.7c1.1,0.5,2.1,1.1,3,2c0.8,0.9,1.5,1.9,2,3.1c0.5,1.2,0.7,2.5,0.7,4c0,1.5-0.2,2.8-0.7,4
		c-0.5,1.2-1.1,2.2-2,3.1c-0.8,0.8-1.8,1.5-3,2c-1.1,0.5-2.3,0.7-3.6,0.7c-1.3,0-2.5-0.2-3.6-0.7c-1.1-0.5-2.1-1.1-3-2
		c-0.8-0.8-1.5-1.9-2-3.1C22.8,99.8,22.5,98.4,22.5,97 M27.7,97c0,1.4,0.4,2.5,1.1,3.4c0.7,0.9,1.7,1.3,3,1.3c1.3,0,2.3-0.4,3-1.3
		c0.7-0.9,1.1-2,1.1-3.4c0-1.4-0.4-2.5-1.1-3.4c-0.7-0.9-1.7-1.3-3-1.3c-1.3,0-2.3,0.4-3,1.3C28,94.4,27.7,95.6,27.7,97"/>
	<path class="st4" d="M42.4,97c0-1.5,0.2-2.8,0.7-4c0.5-1.2,1.1-2.2,2-3.1c0.8-0.9,1.8-1.5,3-2c1.1-0.5,2.3-0.7,3.6-0.7
		c1.3,0,2.5,0.2,3.6,0.7c1.1,0.5,2.1,1.1,3,2c0.8,0.9,1.5,1.9,2,3.1c0.5,1.2,0.7,2.5,0.7,4c0,1.5-0.2,2.8-0.7,4
		c-0.5,1.2-1.1,2.2-2,3.1c-0.8,0.8-1.8,1.5-3,2c-1.1,0.5-2.3,0.7-3.6,0.7c-1.3,0-2.5-0.2-3.6-0.7c-1.1-0.5-2.1-1.1-3-2
		c-0.8-0.8-1.5-1.9-2-3.1C42.7,99.8,42.4,98.4,42.4,97 M47.6,97c0,1.4,0.4,2.5,1.1,3.4c0.7,0.9,1.7,1.3,3,1.3c1.3,0,2.3-0.4,3-1.3
		c0.7-0.9,1.1-2,1.1-3.4c0-1.4-0.4-2.5-1.1-3.4c-0.7-0.9-1.7-1.3-3-1.3c-1.3,0-2.3,0.4-3,1.3C47.9,94.4,47.6,95.6,47.6,97"/>
	<path class="st4" d="M63.5,87.7h4.7v2.4h0.1c0.2-0.3,0.5-0.7,0.8-1c0.3-0.3,0.7-0.7,1.2-0.9c0.4-0.3,0.9-0.5,1.5-0.7
		c0.5-0.2,1.1-0.3,1.7-0.3c1.2,0,2.4,0.2,3.4,0.7c1,0.5,1.9,1.1,2.6,2c0.7,0.8,1.3,1.9,1.7,3c0.4,1.2,0.6,2.4,0.6,3.9
		c0,1.3-0.2,2.5-0.5,3.7c-0.4,1.2-0.9,2.2-1.5,3.1c-0.7,0.9-1.4,1.6-2.4,2.2c-0.9,0.5-2,0.8-3.2,0.8c-1.1,0-2.1-0.2-3-0.6
		c-0.9-0.4-1.7-1-2.3-1.9h-0.1v10.7h-5.1V87.7z M68.2,97c0,1.4,0.4,2.5,1.1,3.4c0.7,0.9,1.7,1.3,3,1.3c1.3,0,2.3-0.4,3-1.3
		c0.7-0.9,1.1-2,1.1-3.4c0-1.4-0.4-2.5-1.1-3.4c-0.7-0.9-1.7-1.3-3-1.3c-1.3,0-2.3,0.4-3,1.3C68.5,94.4,68.2,95.6,68.2,97"/>
	<path class="st4" d="M99.4,103c-0.8,1.2-1.9,2.1-3.1,2.7c-1.2,0.6-2.6,1-3.9,1c-1.3,0-2.5-0.2-3.6-0.7c-1.1-0.5-2.1-1.1-3-2
		c-0.8-0.9-1.5-1.9-2-3.1c-0.5-1.2-0.7-2.5-0.7-4c0-1.5,0.2-2.8,0.7-4c0.5-1.2,1.1-2.2,2-3.1c0.8-0.9,1.8-1.5,3-2
		c1.1-0.5,2.3-0.7,3.6-0.7c1.2,0,2.3,0.2,3.2,0.7c1,0.5,1.8,1.1,2.5,2c0.7,0.8,1.2,1.9,1.6,3.1c0.4,1.2,0.5,2.5,0.5,4v1.8H88.2
		c0.2,1.1,0.6,2,1.3,2.6c0.7,0.6,1.5,1,2.5,1c0.8,0,1.6-0.2,2.2-0.6c0.6-0.4,1.1-1,1.5-1.6L99.4,103z M95,94.9c0-1-0.3-1.8-0.9-2.5
		c-0.6-0.7-1.4-1-2.3-1c-0.6,0-1.1,0.1-1.5,0.3c-0.4,0.2-0.8,0.5-1.1,0.8c-0.3,0.3-0.6,0.7-0.7,1.1c-0.2,0.4-0.3,0.9-0.3,1.3H95z"/>
	<path class="st4" d="M118,79.2h4.4l10.6,27h-6l-2.1-5.7h-9.4l-2,5.7h-5.9L118,79.2z M120.1,87.1l-2.9,8.4h5.9L120.1,87.1z"/>
	<path class="st4" d="M133.8,87.7h4.9v2.5h0.1c0.2-0.4,0.4-0.7,0.7-1.1c0.3-0.3,0.7-0.7,1.1-0.9c0.4-0.3,0.9-0.5,1.4-0.7
		c0.5-0.2,1.1-0.3,1.7-0.3c1.3,0,2.4,0.2,3.2,0.7c0.8,0.4,1.4,1.1,1.9,1.9c0.4,0.8,0.7,1.7,0.9,2.8c0.2,1.1,0.2,2.2,0.2,3.5v10.2
		h-5.2v-9.1c0-0.5,0-1.1-0.1-1.7c0-0.6-0.1-1.1-0.3-1.6c-0.2-0.5-0.4-0.9-0.8-1.2c-0.4-0.3-0.9-0.5-1.5-0.5c-0.7,0-1.2,0.1-1.6,0.4
		c-0.4,0.3-0.7,0.6-0.9,1.1c-0.2,0.5-0.4,0.9-0.4,1.5c-0.1,0.6-0.1,1.1-0.1,1.8v9.2h-5.1V87.7z"/>
	<path class="st4" d="M169.9,106.2h-4.7v-2.4h-0.1c-0.2,0.3-0.5,0.7-0.8,1c-0.3,0.3-0.7,0.7-1.2,0.9c-0.5,0.3-0.9,0.5-1.5,0.7
		c-0.5,0.2-1.1,0.3-1.7,0.3c-1.2,0-2.4-0.2-3.4-0.7c-1-0.5-1.9-1.1-2.6-2c-0.7-0.9-1.3-1.9-1.7-3c-0.4-1.2-0.6-2.5-0.6-3.8
		c0-1.3,0.2-2.5,0.5-3.7c0.4-1.2,0.9-2.2,1.5-3.1c0.7-0.9,1.5-1.7,2.4-2.2c0.9-0.5,2-0.8,3.2-0.8c1.1,0,2.1,0.2,3,0.6
		c0.9,0.4,1.7,1,2.3,1.9h0.1V77.4h5.2V106.2z M165.2,97c0-1.4-0.4-2.5-1.1-3.4c-0.7-0.9-1.7-1.3-3-1.3c-1.3,0-2.3,0.4-3,1.3
		c-0.7,0.9-1.1,2-1.1,3.4c0,1.4,0.4,2.5,1.1,3.4c0.7,0.9,1.7,1.3,3,1.3c1.3,0,2.3-0.4,3-1.3C164.8,99.5,165.2,98.4,165.2,97"/>
	<path class="st4" d="M188.8,103c-0.8,1.2-1.9,2.1-3.1,2.7c-1.3,0.6-2.6,1-3.9,1c-1.3,0-2.5-0.2-3.6-0.7c-1.1-0.5-2.1-1.1-3-2
		c-0.8-0.9-1.5-1.9-2-3.1c-0.5-1.2-0.7-2.5-0.7-4c0-1.5,0.2-2.8,0.7-4c0.5-1.2,1.1-2.2,2-3.1c0.8-0.9,1.8-1.5,3-2
		c1.1-0.5,2.3-0.7,3.6-0.7c1.2,0,2.3,0.2,3.2,0.7c1,0.5,1.8,1.1,2.5,2c0.7,0.8,1.2,1.9,1.6,3.1c0.4,1.2,0.6,2.5,0.6,4v1.8h-11.9
		c0.2,1.1,0.7,2,1.3,2.6c0.7,0.6,1.5,1,2.5,1c0.8,0,1.6-0.2,2.1-0.6c0.6-0.4,1.1-1,1.5-1.6L188.8,103z M184.5,94.9
		c0-1-0.3-1.8-0.9-2.5c-0.6-0.7-1.4-1-2.3-1c-0.6,0-1.1,0.1-1.5,0.3c-0.4,0.2-0.8,0.5-1.1,0.8c-0.3,0.3-0.6,0.7-0.7,1.1
		c-0.2,0.4-0.3,0.9-0.3,1.3H184.5z"/>
</g>
</svg>
